<svg width="843" height="884" viewBox="0 0 843 884" fill="none" xmlns="http://www.w3.org/2000/svg">
<path d="M572.738 62.3491C702.435 152.161 791.556 50.4731 843 0V349.229V698.458H136.55C109.741 702.169 46.9938 688.512 10.4758 604.192C-26.0423 519.873 41.632 436.938 80.0339 406.011C201.036 287.251 92.3515 258.303 197.413 169.975C302.475 81.6476 339.428 191.501 406.088 100.946C459.416 28.5024 539.408 45.0299 572.738 62.3491Z" fill="white"/>
<path d="M604.488 815.787C696.223 859.641 791.556 802.802 843 859.641V400.61L136.55 400.61C109.741 396.431 46.9938 411.811 10.4758 506.766C-26.0423 601.721 41.632 695.115 80.0339 729.943C172.347 831.973 208.961 746.837 307.072 859.641C381.426 945.131 518.968 774.904 604.488 815.787Z" fill="white"/>
</svg>
